<svg width="350" height="92" viewBox="0 0 350 92" fill="none" xmlns="http://www.w3.org/2000/svg">
<path d="M34.8445 70.7078C31.2281 70.7078 27.8663 70.0462 24.7593 68.7229C21.7032 67.3996 19.0545 65.5674 16.8134 63.2262C14.6232 60.8341 13.0187 58.0603 12 54.9048L20.6335 51.164C22.0088 54.4213 23.9953 56.9915 26.5929 58.8746C29.1906 60.7069 32.1194 61.623 35.3793 61.623C37.213 61.623 38.7919 61.3431 40.1163 60.7832C41.4915 60.1725 42.5357 59.3581 43.2488 58.3402C44.0128 57.3223 44.3948 56.1008 44.3948 54.6758C44.3948 52.9962 43.8855 51.6221 42.8668 50.5532C41.899 49.4336 40.4219 48.5683 38.4354 47.9576L27.5098 44.4458C23.0784 43.0716 19.7422 41.0104 17.501 38.262C15.2599 35.5137 14.1393 32.2818 14.1393 28.5664C14.1393 25.3091 14.9288 22.4336 16.5078 19.9397C18.1377 17.4458 20.3788 15.5118 23.2312 14.1376C26.1345 12.7125 29.4453 12 33.1636 12C36.5763 12 39.7088 12.6107 42.5612 13.8322C45.4135 15.0028 47.8584 16.6569 49.8958 18.7945C51.9842 20.8812 53.5377 23.3497 54.5564 26.1998L45.9993 30.017C44.8787 27.1668 43.1978 24.9783 40.9567 23.4515C38.7155 21.8737 36.1178 21.0848 33.1636 21.0848C31.4318 21.0848 29.9037 21.3902 28.5794 22.0009C27.2551 22.5608 26.2109 23.3751 25.4469 24.4439C24.7338 25.4618 24.3773 26.6833 24.3773 28.1084C24.3773 29.6861 24.8866 31.0858 25.9053 32.3073C26.924 33.4779 28.4776 34.394 30.5659 35.0556L41.0331 38.3384C45.5663 39.8143 48.9535 41.8501 51.1947 44.4458C53.4868 47.0415 54.6328 50.2479 54.6328 54.065C54.6328 57.3223 53.7924 60.1979 52.1115 62.6918C50.4307 65.1857 48.1131 67.1451 45.1589 68.5702C42.2046 69.9953 38.7665 70.7078 34.8445 70.7078Z" fill="#23203D"/>
<path d="M59.3286 69.7917V28.2611H68.7262V36.4298L67.9621 34.9793C68.9299 32.4854 70.5089 30.6023 72.6991 29.3299C74.9403 28.0066 77.538 27.345 80.4922 27.345C83.5483 27.345 86.2479 28.0066 88.5909 29.3299C90.9849 30.6532 92.844 32.5108 94.1683 34.9029C95.4926 37.2441 96.1548 39.967 96.1548 43.0716V69.7917H86.146V45.4383C86.146 43.606 85.7895 42.0283 85.0764 40.705C84.3633 39.3817 83.37 38.3638 82.0967 37.6513C80.8742 36.8878 79.4226 36.5061 77.7417 36.5061C76.1118 36.5061 74.6601 36.8878 73.3867 37.6513C72.1134 38.3638 71.1201 39.3817 70.407 40.705C69.6939 42.0283 69.3374 43.606 69.3374 45.4383V69.7917H59.3286Z" fill="#23203D"/>
<path d="M113.405 70.7078C110.501 70.7078 107.98 70.2243 105.841 69.2573C103.701 68.2903 102.046 66.9161 100.874 65.1348C99.7029 63.3025 99.1172 61.1904 99.1172 58.7983C99.1172 56.508 99.6266 54.4722 100.645 52.6909C101.664 50.8586 103.243 49.3318 105.382 48.1103C107.522 46.8888 110.221 46.0236 113.481 45.5146L127.081 43.3007V50.935L115.391 52.9199C113.405 53.2762 111.927 53.9123 110.96 54.8285C109.992 55.7446 109.508 56.9406 109.508 58.4166C109.508 59.8417 110.043 60.9868 111.112 61.852C112.233 62.6663 113.608 63.0735 115.238 63.0735C117.327 63.0735 119.16 62.6409 120.739 61.7757C122.369 60.8596 123.617 59.6126 124.483 58.0349C125.4 56.4571 125.858 54.7267 125.858 52.8435V42.1555C125.858 40.3742 125.145 38.8982 123.719 37.7276C122.344 36.5061 120.51 35.8954 118.218 35.8954C116.079 35.8954 114.169 36.4807 112.488 37.6513C110.858 38.771 109.661 40.2724 108.897 42.1555L100.722 38.1857C101.537 35.9972 102.81 34.114 104.542 32.5363C106.325 30.9076 108.413 29.6352 110.807 28.7191C113.201 27.803 115.798 27.345 118.6 27.345C122.013 27.345 125.018 27.9811 127.615 29.2535C130.213 30.475 132.225 32.2055 133.651 34.4449C135.128 36.6334 135.867 39.2036 135.867 42.1555V69.7917H126.393V62.6918L128.532 62.5391C127.463 64.3204 126.189 65.8219 124.712 67.0434C123.235 68.2139 121.554 69.1301 119.67 69.7917C117.785 70.4024 115.697 70.7078 113.405 70.7078Z" fill="#23203D"/>
<path d="M141.298 84V28.2611H150.695V36.5061L149.778 34.4449C151.204 32.2055 153.14 30.475 155.585 29.2535C158.03 27.9811 160.857 27.345 164.066 27.345C167.988 27.345 171.528 28.312 174.686 30.246C177.844 32.18 180.339 34.7757 182.173 38.033C184.058 41.2903 185 44.9548 185 49.0264C185 53.0471 184.083 56.7116 182.249 60.0198C180.416 63.328 177.92 65.9491 174.762 67.8831C171.604 69.7663 168.013 70.7078 163.989 70.7078C160.984 70.7078 158.208 70.1225 155.661 68.9519C153.165 67.7304 151.179 66 149.702 63.7606L151.306 61.7757V84H141.298ZM162.843 61.5466C165.135 61.5466 167.173 61.0123 168.955 59.9434C170.738 58.8746 172.113 57.3987 173.081 55.5155C174.1 53.6324 174.609 51.4694 174.609 49.0264C174.609 46.5834 174.1 44.4458 173.081 42.6136C172.113 40.7304 170.738 39.2545 168.955 38.1857C167.173 37.066 165.135 36.5061 162.843 36.5061C160.653 36.5061 158.666 37.0405 156.884 38.1093C155.152 39.1781 153.777 40.6795 152.758 42.6136C151.79 44.4967 151.306 46.6343 151.306 49.0264C151.306 51.4694 151.79 53.6324 152.758 55.5155C153.777 57.3987 155.152 58.8746 156.884 59.9434C158.666 61.0123 160.653 61.5466 162.843 61.5466Z" fill="#23203D"/>
<path fill-rule="evenodd" clip-rule="evenodd" d="M338 12C338 9.79086 336.209 8 334 8H196C193.791 8 192 9.79086 192 12V78C192 80.2091 193.791 82 196 82H316.809C317.87 82 318.888 81.5786 319.638 80.8284L336.828 63.6378C337.579 62.8877 338 61.8703 338 60.8094V12Z" fill="#7E1DF9"/>
<path d="M204.458 69.8274V20.1726H223.52C226.941 20.1726 229.963 20.7725 232.584 21.9722C235.25 23.1719 237.339 24.9492 238.849 27.3042C240.36 29.6592 241.115 32.5696 241.115 36.0355C241.115 39.4124 240.338 42.2784 238.783 44.6334C237.272 46.9884 235.183 48.788 232.517 50.0321C229.896 51.2318 226.897 51.8317 223.52 51.8317H214.788V69.8274H204.458ZM214.788 42.8338H223.586C225.053 42.8338 226.319 42.545 227.385 41.9674C228.452 41.3897 229.274 40.5899 229.851 39.5679C230.473 38.546 230.785 37.3685 230.785 36.0355C230.785 34.658 230.473 33.4583 229.851 32.4363C229.274 31.4144 228.452 30.6145 227.385 30.0369C226.319 29.4593 225.053 29.1704 223.586 29.1704H214.788V42.8338Z" fill="white"/>
<path d="M245.771 69.8274V20.1726H261.967C267.343 20.1726 272.009 21.239 275.964 23.3718C279.918 25.5047 282.984 28.4373 285.161 32.1697C287.339 35.9022 288.427 40.1678 288.427 44.9667C288.427 49.7655 287.339 54.0534 285.161 57.8302C282.984 61.5627 279.918 64.4953 275.964 66.6281C272.009 68.7609 267.343 69.8274 261.967 69.8274H245.771ZM256.102 60.8295H262.233C265.477 60.8295 268.276 60.1852 270.631 58.8966C272.986 57.5636 274.808 55.7196 276.097 53.3646C277.43 50.9652 278.096 48.1659 278.096 44.9667C278.096 41.723 277.43 38.9237 276.097 36.5687C274.808 34.2137 272.986 32.3919 270.631 31.1033C268.276 29.8147 265.477 29.1704 262.233 29.1704H256.102V60.8295Z" fill="white"/>
<path d="M293.211 69.8274V20.1726H327.203V29.1704H303.542V41.7674H323.871V50.7653H303.542V69.8274H293.211Z" fill="white"/>
<path d="M315.388 61.5591V77.8238C315.388 78.2692 315.926 78.4923 316.241 78.1773L334.006 60.4126C334.321 60.0977 334.098 59.5591 333.652 59.5591H317.388C316.283 59.5591 315.388 60.4545 315.388 61.5591Z" fill="white"/>
</svg>
