<svg width="312" height="205" viewBox="0 0 312 205" fill="none" xmlns="http://www.w3.org/2000/svg">
<path d="M168.682 43.291H263.034V176.464H168.682V43.291Z" fill="white"/>
<path d="M263.033 175.557C262.194 175.557 261.356 175.557 260.518 175.557C258.223 175.557 255.928 175.557 253.632 175.557C250.253 175.557 246.873 175.557 243.493 175.557C239.371 175.557 235.249 175.557 231.127 175.557C226.589 175.557 222.052 175.557 217.514 175.557C212.956 175.557 208.397 175.557 203.839 175.557C199.588 175.557 195.337 175.557 191.086 175.557C187.492 175.557 183.898 175.557 180.304 175.557C177.707 175.557 175.109 175.557 172.513 175.557C171.303 175.557 170.046 175.457 168.839 175.557C168.787 175.561 168.733 175.557 168.68 175.557L169.584 176.464C169.584 175.269 169.584 174.073 169.584 172.878C169.584 169.653 169.584 166.429 169.584 163.205C169.584 158.425 169.584 153.645 169.584 148.865C169.584 143.033 169.584 137.201 169.584 131.37C169.584 125.004 169.584 118.639 169.584 112.274C169.584 105.805 169.584 99.3362 169.584 92.8674C169.584 86.8768 169.584 80.8866 169.584 74.896C169.584 69.8157 169.584 64.7351 169.584 59.6548C169.584 56.0023 169.584 52.3495 169.584 48.6969C169.584 46.9801 169.679 45.2325 169.584 43.5175C169.58 43.4425 169.584 43.3663 169.584 43.2911C169.283 43.5934 168.982 43.8957 168.68 44.198H171.195H178.081H188.219H200.586H214.199H227.874H240.627H251.409H259.2C260.409 44.198 261.667 44.2977 262.873 44.198C262.926 44.1937 262.98 44.198 263.033 44.198C262.731 43.8957 262.43 43.5934 262.128 43.2911V46.8773V56.5497V70.8898V88.3854V107.481V126.888V144.859V160.1V171.058C262.128 172.783 262.096 174.512 262.128 176.237C262.13 176.313 262.128 176.388 262.128 176.464C262.128 177.631 263.937 177.633 263.937 176.464C263.937 175.269 263.937 174.073 263.937 172.878C263.937 169.653 263.937 166.429 263.937 163.205C263.937 158.425 263.937 153.645 263.937 148.865C263.937 143.033 263.937 137.201 263.937 131.37C263.937 125.004 263.937 118.639 263.937 112.274C263.937 105.805 263.937 99.3362 263.937 92.8674C263.937 86.8768 263.937 80.8866 263.937 74.896C263.937 69.8157 263.937 64.7351 263.937 59.6548C263.937 56.0023 263.937 52.3495 263.937 48.6969C263.937 46.9717 263.969 45.2428 263.937 43.5175C263.935 43.4422 263.937 43.3666 263.937 43.2911C263.937 42.8007 263.522 42.3841 263.033 42.3841C262.194 42.3841 261.356 42.3841 260.518 42.3841C258.223 42.3841 255.928 42.3841 253.632 42.3841C250.253 42.3841 246.873 42.3841 243.493 42.3841C239.371 42.3841 235.249 42.3841 231.127 42.3841C226.589 42.3841 222.052 42.3841 217.514 42.3841C212.956 42.3841 208.397 42.3841 203.839 42.3841C199.588 42.3841 195.337 42.3841 191.086 42.3841C187.492 42.3841 183.898 42.3841 180.304 42.3841C177.707 42.3841 175.109 42.3841 172.513 42.3841C171.29 42.3841 170.062 42.3497 168.839 42.3841C168.786 42.3856 168.733 42.3841 168.68 42.3841C168.191 42.3841 167.776 42.7995 167.776 43.2911V46.8773V56.5497V70.8898V88.3854V107.481V126.888V144.859V160.1V171.058C167.776 172.783 167.744 174.512 167.776 176.237C167.778 176.313 167.776 176.388 167.776 176.464C167.776 176.954 168.191 177.371 168.68 177.371H171.195H178.081H188.219H200.586H214.199H227.874H240.627H251.409H259.2C260.423 177.371 261.651 177.405 262.873 177.371C262.926 177.369 262.979 177.371 263.033 177.371C264.196 177.371 264.198 175.557 263.033 175.557Z" fill="#1B1464"/>
<path d="M244.669 94.6438C244.156 94.6438 243.644 94.6438 243.131 94.6438C241.735 94.6438 240.339 94.6438 238.943 94.6438C236.879 94.6438 234.814 94.6438 232.75 94.6438C230.23 94.6438 227.711 94.6438 225.191 94.6438C222.418 94.6438 219.646 94.6438 216.873 94.6438C214.086 94.6438 211.3 94.6438 208.513 94.6438C205.914 94.6438 203.316 94.6438 200.718 94.6438C198.522 94.6438 196.325 94.6438 194.129 94.6438C192.55 94.6438 190.97 94.6438 189.39 94.6438C188.642 94.6438 187.89 94.6226 187.142 94.6438C187.109 94.6447 187.077 94.6438 187.044 94.6438C186.462 94.6438 186.461 95.5507 187.044 95.5507H188.583H192.77H198.964H206.522H214.84H223.2H230.996H237.584H242.323C243.072 95.5507 243.824 95.5719 244.572 95.5507C244.604 95.5498 244.637 95.5507 244.669 95.5507C245.251 95.5507 245.252 94.6438 244.669 94.6438Z" fill="#9D9BB2"/>
<path d="M244.669 106.599C244.156 106.599 243.644 106.599 243.131 106.599C241.735 106.599 240.339 106.599 238.943 106.599C236.879 106.599 234.814 106.599 232.75 106.599C230.23 106.599 227.711 106.599 225.191 106.599C222.418 106.599 219.646 106.599 216.873 106.599C214.086 106.599 211.3 106.599 208.513 106.599C205.914 106.599 203.316 106.599 200.718 106.599C198.522 106.599 196.325 106.599 194.129 106.599C192.55 106.599 190.97 106.599 189.39 106.599C188.642 106.599 187.89 106.578 187.142 106.599C187.109 106.6 187.077 106.599 187.044 106.599C186.462 106.599 186.461 107.506 187.044 107.506H188.583H192.77H198.964H206.522H214.84H223.2H230.996H237.584H242.323C243.072 107.506 243.824 107.527 244.572 107.506C244.604 107.505 244.637 107.506 244.669 107.506C245.251 107.506 245.252 106.599 244.669 106.599Z" fill="#9D9BB2"/>
<path d="M244.669 118.555C244.156 118.555 243.644 118.555 243.131 118.555C241.735 118.555 240.339 118.555 238.943 118.555C236.879 118.555 234.814 118.555 232.75 118.555C230.23 118.555 227.711 118.555 225.191 118.555C222.418 118.555 219.646 118.555 216.873 118.555C214.086 118.555 211.3 118.555 208.513 118.555C205.914 118.555 203.316 118.555 200.718 118.555C198.522 118.555 196.325 118.555 194.129 118.555C192.55 118.555 190.97 118.555 189.39 118.555C188.642 118.555 187.89 118.534 187.142 118.555C187.109 118.556 187.077 118.555 187.044 118.555C186.462 118.555 186.461 119.462 187.044 119.462H188.583H192.77H198.964H206.522H214.84H223.2H230.996H237.584H242.323C243.072 119.462 243.824 119.483 244.572 119.462C244.604 119.461 244.637 119.462 244.669 119.462C245.251 119.462 245.252 118.555 244.669 118.555Z" fill="#9D9BB2"/>
<path d="M244.669 130.51C244.156 130.51 243.644 130.51 243.131 130.51C241.735 130.51 240.339 130.51 238.943 130.51C236.879 130.51 234.814 130.51 232.75 130.51C230.23 130.51 227.711 130.51 225.191 130.51C222.418 130.51 219.646 130.51 216.873 130.51C214.086 130.51 211.3 130.51 208.513 130.51C205.914 130.51 203.316 130.51 200.718 130.51C198.522 130.51 196.325 130.51 194.129 130.51C192.55 130.51 190.97 130.51 189.39 130.51C188.642 130.51 187.89 130.489 187.142 130.51C187.109 130.511 187.077 130.51 187.044 130.51C186.462 130.51 186.461 131.417 187.044 131.417H188.583H192.77H198.964H206.522H214.84H223.2H230.996H237.584H242.323C243.072 131.417 243.824 131.438 244.572 131.417C244.604 131.416 244.637 131.417 244.669 131.417C245.251 131.417 245.252 130.51 244.669 130.51Z" fill="#9D9BB2"/>
<path d="M244.669 142.465C244.156 142.465 243.644 142.465 243.131 142.465C241.735 142.465 240.339 142.465 238.943 142.465C236.879 142.465 234.814 142.465 232.75 142.465C230.23 142.465 227.711 142.465 225.191 142.465C222.418 142.465 219.646 142.465 216.873 142.465C214.086 142.465 211.3 142.465 208.513 142.465C205.914 142.465 203.316 142.465 200.718 142.465C198.522 142.465 196.325 142.465 194.129 142.465C192.55 142.465 190.97 142.465 189.39 142.465C188.642 142.465 187.89 142.444 187.142 142.465C187.109 142.466 187.077 142.465 187.044 142.465C186.462 142.465 186.461 143.372 187.044 143.372H188.583H192.77H198.964H206.522H214.84H223.2H230.996H237.584H242.323C243.072 143.372 243.824 143.393 244.572 143.372C244.604 143.371 244.637 143.372 244.669 143.372C245.251 143.372 245.252 142.465 244.669 142.465Z" fill="#9D9BB2"/>
<path d="M215.858 82.0834C223.537 82.0834 229.762 75.8387 229.762 68.1354C229.762 60.4322 223.537 54.1875 215.858 54.1875C208.178 54.1875 201.953 60.4322 201.953 68.1354C201.953 75.8387 208.178 82.0834 215.858 82.0834Z" fill="#1967FF"/>
<path d="M211.766 72.3633C211.804 72.6629 211.829 72.9239 211.841 73.1472H211.884C211.936 72.6353 212.018 72.1268 212.129 71.6242L214.157 62.8118H216.779L218.877 71.4922C218.982 71.9209 219.07 72.466 219.139 73.1294H219.174C219.204 72.672 219.277 72.1435 219.393 71.545L221.071 62.8118H223.458L220.521 75.4362H217.732L215.73 67.0731C215.672 66.8321 215.606 66.5182 215.533 66.1309C215.477 65.8512 215.432 65.5694 215.398 65.2862H215.364C215.34 65.4916 215.295 65.7969 215.228 66.2014C215.179 66.5018 215.125 66.8012 215.066 67.0995L213.186 75.4362H210.354L207.391 62.8118H209.821L211.648 71.642C211.689 71.8239 211.728 72.0643 211.766 72.3639V72.3633Z" fill="#F9F7F7"/>
<path d="M228.858 68.1355C228.848 70.881 228.02 73.4978 226.403 75.7709C224.948 77.816 222.713 79.5213 220.354 80.3787C217.74 81.3286 214.963 81.4344 212.32 80.688C209.753 79.9624 207.501 78.4711 205.772 76.3713C205.42 75.9444 205.047 75.4111 204.717 74.86C204.39 74.3159 204.026 73.5982 203.832 73.1154C203.574 72.4748 203.364 71.8146 203.204 71.1425C203.129 70.8266 203.065 70.5083 203.012 70.1878C202.981 69.9995 202.971 69.9315 202.957 69.8142C202.932 69.6071 202.912 69.3991 202.896 69.1911C202.69 66.4277 203.306 63.7616 204.716 61.4115C206.083 59.1333 208.099 57.3415 210.559 56.2181C212.933 55.134 215.838 54.8187 218.407 55.3435C221.042 55.8819 223.371 57.1665 225.223 59.0907C226.161 60.0653 226.875 61.078 227.502 62.326C228.082 63.482 228.504 64.8176 228.72 66.1862C228.804 66.717 228.856 67.4864 228.858 68.1355C228.862 69.3024 230.671 69.3048 230.666 68.1355C230.655 65.0942 229.729 62.0657 227.964 59.5846C226.207 57.1142 223.767 55.2329 220.929 54.1778C215.15 52.0299 208.367 53.8785 204.462 58.6553C202.509 61.0436 201.334 63.9467 201.093 67.0281C200.854 70.0787 201.599 73.2022 203.181 75.8177C204.709 78.3441 207.003 80.4237 209.692 81.6402C212.575 82.9444 215.786 83.3111 218.888 82.6772C224.804 81.4685 229.581 76.4623 230.479 70.4657C230.595 69.6924 230.664 68.9175 230.666 68.1355C230.671 66.9682 228.863 66.9667 228.858 68.1355Z" fill="#1967FF"/>
<path d="M102.648 28.9223H197.001V162.095H102.648V28.9223Z" fill="white"/>
<path d="M197.001 161.188C196.163 161.188 195.325 161.188 194.487 161.188C192.192 161.188 189.896 161.188 187.601 161.188C184.221 161.188 180.842 161.188 177.462 161.188C173.34 161.188 169.218 161.188 165.095 161.188C160.558 161.188 156.02 161.188 151.483 161.188C146.924 161.188 142.366 161.188 137.808 161.188C133.556 161.188 129.306 161.188 125.054 161.188C121.46 161.188 117.866 161.188 114.272 161.188C111.675 161.188 109.078 161.188 106.481 161.188C105.272 161.188 104.015 161.088 102.808 161.188C102.756 161.192 102.701 161.188 102.649 161.188L103.553 162.095C103.553 160.9 103.553 159.704 103.553 158.509C103.553 155.285 103.553 152.061 103.553 148.836C103.553 144.056 103.553 139.276 103.553 134.496C103.553 128.664 103.553 122.833 103.553 117.001C103.553 110.636 103.553 104.271 103.553 97.9051C103.553 91.4363 103.553 84.9674 103.553 78.4986C103.553 72.508 103.553 66.5178 103.553 60.5272C103.553 55.4469 103.553 50.3663 103.553 45.286C103.553 41.6335 103.553 37.9807 103.553 34.3281C103.553 32.6113 103.647 30.8637 103.553 29.1487C103.549 29.0737 103.553 28.9975 103.553 28.9222C103.252 29.2246 102.95 29.5269 102.649 29.8292H105.163H112.049H122.188H134.555H148.167H161.843H174.596H185.378H193.169C194.378 29.8292 195.636 29.9289 196.842 29.8292C196.895 29.8249 196.949 29.8292 197.001 29.8292C196.7 29.5269 196.399 29.2246 196.097 28.9222V32.5085V42.1809V56.521V74.0166V93.1123V112.519V130.49V145.731V156.689C196.097 158.414 196.065 160.143 196.097 161.869C196.099 161.944 196.097 162.02 196.097 162.095C196.097 163.262 197.905 163.264 197.905 162.095C197.905 160.9 197.905 159.704 197.905 158.509C197.905 155.285 197.905 152.061 197.905 148.836C197.905 144.056 197.905 139.276 197.905 134.496C197.905 128.664 197.905 122.833 197.905 117.001C197.905 110.636 197.905 104.271 197.905 97.9051C197.905 91.4363 197.905 84.9674 197.905 78.4986C197.905 72.508 197.905 66.5178 197.905 60.5272C197.905 55.4469 197.905 50.3663 197.905 45.286C197.905 41.6335 197.905 37.9807 197.905 34.3281C197.905 32.6029 197.938 30.874 197.905 29.1487C197.904 29.0734 197.905 28.9978 197.905 28.9222C197.905 28.4319 197.491 28.0153 197.001 28.0153C196.163 28.0153 195.325 28.0153 194.487 28.0153C192.192 28.0153 189.896 28.0153 187.601 28.0153C184.221 28.0153 180.842 28.0153 177.462 28.0153C173.34 28.0153 169.218 28.0153 165.095 28.0153C160.558 28.0153 156.02 28.0153 151.483 28.0153C146.924 28.0153 142.366 28.0153 137.808 28.0153C133.556 28.0153 129.306 28.0153 125.054 28.0153C121.46 28.0153 117.866 28.0153 114.272 28.0153C111.675 28.0153 109.078 28.0153 106.481 28.0153C105.259 28.0153 104.031 27.9809 102.808 28.0153C102.755 28.0168 102.702 28.0153 102.649 28.0153C102.16 28.0153 101.745 28.4307 101.745 28.9222V32.5085V42.1809V56.521V74.0166V93.1123V112.519V130.49V145.731V156.689C101.745 158.414 101.712 160.143 101.745 161.869C101.746 161.944 101.745 162.02 101.745 162.095C101.745 162.585 102.159 163.002 102.649 163.002H105.163H112.049H122.188H134.555H148.167H161.843H174.596H185.378H193.169C194.392 163.002 195.62 163.036 196.842 163.002C196.895 163.001 196.948 163.002 197.001 163.002C198.165 163.002 198.167 161.188 197.001 161.188Z" fill="#1B1464"/>
<path d="M178.638 80.2753C178.125 80.2753 177.612 80.2753 177.099 80.2753C175.704 80.2753 174.308 80.2753 172.912 80.2753C170.848 80.2753 168.783 80.2753 166.718 80.2753C164.199 80.2753 161.68 80.2753 159.16 80.2753C156.387 80.2753 153.615 80.2753 150.842 80.2753C148.055 80.2753 145.268 80.2753 142.482 80.2753C139.883 80.2753 137.285 80.2753 134.686 80.2753C132.49 80.2753 130.294 80.2753 128.098 80.2753C126.518 80.2753 124.939 80.2753 123.359 80.2753C122.61 80.2753 121.858 80.2541 121.11 80.2753C121.078 80.2762 121.045 80.2753 121.013 80.2753C120.431 80.2753 120.43 81.1822 121.013 81.1822H122.551H126.739H132.932H140.491H148.809H157.169H164.964H171.553H176.292C177.04 81.1822 177.792 81.2034 178.54 81.1822C178.573 81.1813 178.605 81.1822 178.638 81.1822C179.22 81.1822 179.221 80.2753 178.638 80.2753Z" fill="#9D9BB2"/>
<path d="M178.638 92.2307C178.125 92.2307 177.612 92.2307 177.099 92.2307C175.704 92.2307 174.308 92.2307 172.912 92.2307C170.848 92.2307 168.783 92.2307 166.718 92.2307C164.199 92.2307 161.68 92.2307 159.16 92.2307C156.387 92.2307 153.615 92.2307 150.842 92.2307C148.055 92.2307 145.268 92.2307 142.482 92.2307C139.883 92.2307 137.285 92.2307 134.686 92.2307C132.49 92.2307 130.294 92.2307 128.098 92.2307C126.518 92.2307 124.939 92.2307 123.359 92.2307C122.61 92.2307 121.858 92.2096 121.11 92.2307C121.078 92.2317 121.045 92.2307 121.013 92.2307C120.431 92.2307 120.43 93.1377 121.013 93.1377H122.551H126.739H132.932H140.491H148.809H157.169H164.964H171.553H176.292C177.04 93.1377 177.792 93.1588 178.54 93.1377C178.573 93.1368 178.605 93.1377 178.638 93.1377C179.22 93.1377 179.221 92.2307 178.638 92.2307Z" fill="#9D9BB2"/>
<path d="M178.638 104.186C178.125 104.186 177.612 104.186 177.099 104.186C175.704 104.186 174.308 104.186 172.912 104.186C170.848 104.186 168.783 104.186 166.718 104.186C164.199 104.186 161.68 104.186 159.16 104.186C156.387 104.186 153.615 104.186 150.842 104.186C148.055 104.186 145.268 104.186 142.482 104.186C139.883 104.186 137.285 104.186 134.686 104.186C132.49 104.186 130.294 104.186 128.098 104.186C126.518 104.186 124.939 104.186 123.359 104.186C122.61 104.186 121.858 104.165 121.11 104.186C121.078 104.187 121.045 104.186 121.013 104.186C120.431 104.186 120.43 105.093 121.013 105.093H122.551H126.739H132.932H140.491H148.809H157.169H164.964H171.553H176.292C177.04 105.093 177.792 105.114 178.54 105.093C178.573 105.092 178.605 105.093 178.638 105.093C179.22 105.093 179.221 104.186 178.638 104.186Z" fill="#9D9BB2"/>
<path d="M178.638 116.141C178.125 116.141 177.612 116.141 177.099 116.141C175.704 116.141 174.308 116.141 172.912 116.141C170.848 116.141 168.783 116.141 166.718 116.141C164.199 116.141 161.68 116.141 159.16 116.141C156.387 116.141 153.615 116.141 150.842 116.141C148.055 116.141 145.268 116.141 142.482 116.141C139.883 116.141 137.285 116.141 134.686 116.141C132.49 116.141 130.294 116.141 128.098 116.141C126.518 116.141 124.939 116.141 123.359 116.141C122.61 116.141 121.858 116.12 121.11 116.141C121.078 116.142 121.045 116.141 121.013 116.141C120.431 116.141 120.43 117.048 121.013 117.048H122.551H126.739H132.932H140.491H148.809H157.169H164.964H171.553H176.292C177.04 117.048 177.792 117.069 178.54 117.048C178.573 117.047 178.605 117.048 178.638 117.048C179.22 117.048 179.221 116.141 178.638 116.141Z" fill="#9D9BB2"/>
<path d="M178.638 128.097C178.125 128.097 177.612 128.097 177.099 128.097C175.704 128.097 174.308 128.097 172.912 128.097C170.848 128.097 168.783 128.097 166.718 128.097C164.199 128.097 161.68 128.097 159.16 128.097C156.387 128.097 153.615 128.097 150.842 128.097C148.055 128.097 145.268 128.097 142.482 128.097C139.883 128.097 137.285 128.097 134.686 128.097C132.49 128.097 130.294 128.097 128.098 128.097C126.518 128.097 124.939 128.097 123.359 128.097C122.61 128.097 121.858 128.076 121.11 128.097C121.078 128.098 121.045 128.097 121.013 128.097C120.431 128.097 120.43 129.004 121.013 129.004H122.551H126.739H132.932H140.491H148.809H157.169H164.964H171.553H176.292C177.04 129.004 177.792 129.025 178.54 129.004C178.573 129.003 178.605 129.004 178.638 129.004C179.22 129.004 179.221 128.097 178.638 128.097Z" fill="#9D9BB2"/>
<path d="M150.295 67.7077C157.975 67.7077 164.2 61.463 164.2 53.7598C164.2 46.0565 157.975 39.8118 150.295 39.8118C142.616 39.8118 136.391 46.0565 136.391 53.7598C136.391 61.463 142.616 67.7077 150.295 67.7077Z" fill="#30B778"/>
<path d="M143.391 61.7118L148.271 54.2118L143.431 46.8118H146.551L150.511 52.8718H149.071L153.011 46.8118H156.131L151.311 54.2118L156.171 61.7118H153.051L149.071 55.5718H150.511L146.511 61.7118H143.391Z" fill="white"/>
<path d="M162.825 53.767C162.815 56.5125 161.987 59.1293 160.37 61.4024C158.915 63.4475 156.679 65.1528 154.321 66.0102C151.707 66.9601 148.929 67.0659 146.287 66.3195C143.72 65.5939 141.467 64.1026 139.738 62.0028C139.387 61.5759 139.014 61.0426 138.683 60.4915C138.357 59.9474 137.993 59.2297 137.799 58.7469C137.541 58.1063 137.331 57.4461 137.171 56.774C137.096 56.4581 137.032 56.1398 136.979 55.8193C136.948 55.631 136.938 55.563 136.924 55.4457C136.899 55.2386 136.879 55.0306 136.863 54.8226C136.657 52.0592 137.273 49.3931 138.683 47.043C140.05 44.7648 142.065 42.973 144.526 41.8496C146.9 40.7655 149.805 40.4502 152.374 40.975C155.009 41.5134 157.338 42.798 159.19 44.7222C160.127 45.6968 160.842 46.7095 161.469 47.9575C162.049 49.1135 162.471 50.4491 162.687 51.8177C162.77 52.3485 162.823 53.1176 162.825 53.767C162.829 54.9339 164.637 54.9363 164.633 53.767C164.622 50.7257 163.696 47.6972 161.931 45.2161C160.174 42.7457 157.734 40.8644 154.896 39.8093C149.117 37.6614 142.334 39.51 138.429 44.2868C136.476 46.6751 135.301 49.5782 135.059 52.6596C134.82 55.7102 135.566 58.8337 137.148 61.4493C138.676 63.9757 140.97 66.0552 143.659 67.2717C146.542 68.5759 149.753 68.9426 152.855 68.3087C158.771 67.1 163.548 62.0938 164.446 56.0972C164.562 55.3239 164.63 54.549 164.633 53.767C164.638 52.5997 162.83 52.5982 162.825 53.767Z" fill="#30B778"/>
<path d="M49.918 44.2735H144.271V177.446H49.918V44.2735Z" fill="white"/>
<path d="M144.271 176.539C143.433 176.539 142.595 176.539 141.756 176.539C139.461 176.539 137.166 176.539 134.87 176.539C131.491 176.539 128.111 176.539 124.732 176.539C120.61 176.539 116.487 176.539 112.365 176.539C107.828 176.539 103.29 176.539 98.7524 176.539C94.1939 176.539 89.6353 176.539 85.0771 176.539C80.826 176.539 76.5751 176.539 72.324 176.539C68.7298 176.539 65.136 176.539 61.5418 176.539C58.9449 176.539 56.3477 176.539 53.7508 176.539C52.5417 176.539 51.2841 176.44 50.0777 176.539C50.0253 176.544 49.971 176.539 49.9186 176.539L50.8227 177.446C50.8227 176.251 50.8227 175.055 50.8227 173.86C50.8227 170.636 50.8227 167.412 50.8227 164.188C50.8227 159.408 50.8227 154.628 50.8227 149.848C50.8227 144.016 50.8227 138.184 50.8227 132.352C50.8227 125.987 50.8227 119.622 50.8227 113.256C50.8227 106.788 50.8227 100.319 50.8227 93.8499C50.8227 87.8593 50.8227 81.8691 50.8227 75.8785C50.8227 70.7982 50.8227 65.7176 50.8227 60.6373C50.8227 56.9847 50.8227 53.3319 50.8227 49.6794C50.8227 47.9626 50.917 46.215 50.8227 44.5C50.8185 44.425 50.8227 44.3488 50.8227 44.2735C50.5213 44.5758 50.2199 44.8782 49.9186 45.1805H52.4329H59.3189H69.4576H81.8244H95.437H109.112H121.865H132.648H140.439C141.648 45.1805 142.905 45.2802 144.112 45.1805C144.164 45.1762 144.218 45.1805 144.271 45.1805C143.969 44.8782 143.668 44.5758 143.367 44.2735V47.8598V57.5322V71.8723V89.3679V108.464V127.87V145.841V161.083V172.04C143.367 173.766 143.334 175.495 143.367 177.22C143.368 177.295 143.367 177.371 143.367 177.446C143.367 178.614 145.175 178.615 145.175 177.446C145.175 176.251 145.175 175.055 145.175 173.86C145.175 170.636 145.175 167.412 145.175 164.188C145.175 159.408 145.175 154.628 145.175 149.848C145.175 144.016 145.175 138.184 145.175 132.352C145.175 125.987 145.175 119.622 145.175 113.256C145.175 106.788 145.175 100.319 145.175 93.8499C145.175 87.8593 145.175 81.8691 145.175 75.8785C145.175 70.7982 145.175 65.7176 145.175 60.6373C145.175 56.9847 145.175 53.3319 145.175 49.6794C145.175 47.9542 145.207 46.2252 145.175 44.5C145.173 44.4247 145.175 44.3491 145.175 44.2735C145.175 43.7832 144.761 43.3666 144.271 43.3666C143.433 43.3666 142.595 43.3666 141.756 43.3666C139.461 43.3666 137.166 43.3666 134.87 43.3666C131.491 43.3666 128.111 43.3666 124.732 43.3666C120.61 43.3666 116.487 43.3666 112.365 43.3666C107.828 43.3666 103.29 43.3666 98.7524 43.3666C94.1939 43.3666 89.6353 43.3666 85.0771 43.3666C80.826 43.3666 76.5751 43.3666 72.324 43.3666C68.7298 43.3666 65.136 43.3666 61.5418 43.3666C58.9449 43.3666 56.3477 43.3666 53.7508 43.3666C52.5281 43.3666 51.3001 43.3321 50.0777 43.3666C50.0247 43.3681 49.9716 43.3666 49.9186 43.3666C49.4298 43.3666 49.0145 43.782 49.0145 44.2735V47.8598V57.5322V71.8723V89.3679V108.464V127.87V145.841V161.083V172.04C49.0145 173.766 48.9819 175.495 49.0145 177.22C49.016 177.295 49.0145 177.371 49.0145 177.446C49.0145 177.937 49.4285 178.353 49.9186 178.353H52.4329H59.3189H69.4576H81.8244H95.437H109.112H121.865H132.648H140.439C141.661 178.353 142.889 178.388 144.112 178.353C144.165 178.352 144.218 178.353 144.271 178.353C145.434 178.353 145.436 176.539 144.271 176.539Z" fill="#1B1464"/>
<path d="M125.907 95.6266C125.395 95.6266 124.882 95.6266 124.369 95.6266C122.973 95.6266 121.577 95.6266 120.182 95.6266C118.117 95.6266 116.052 95.6266 113.988 95.6266C111.469 95.6266 108.949 95.6266 106.43 95.6266C103.657 95.6266 100.884 95.6266 98.1112 95.6266C95.3244 95.6266 92.5379 95.6266 89.7511 95.6266C87.1527 95.6266 84.5543 95.6266 81.9559 95.6266C79.7598 95.6266 77.5637 95.6266 75.3676 95.6266C73.7878 95.6266 72.208 95.6266 70.6283 95.6266C69.88 95.6266 69.128 95.6054 68.38 95.6266C68.3475 95.6275 68.3149 95.6266 68.2824 95.6266C67.7007 95.6266 67.6995 96.5335 68.2824 96.5335H69.8209H74.0081H80.2019H87.7603H96.0787H104.439H112.234H118.822H123.562C124.31 96.5335 125.062 96.5547 125.81 96.5335C125.842 96.5326 125.875 96.5335 125.907 96.5335C126.489 96.5335 126.49 95.6266 125.907 95.6266Z" fill="#9D9BB2"/>
<path d="M125.907 107.582C125.395 107.582 124.882 107.582 124.369 107.582C122.973 107.582 121.577 107.582 120.182 107.582C118.117 107.582 116.052 107.582 113.988 107.582C111.469 107.582 108.949 107.582 106.43 107.582C103.657 107.582 100.884 107.582 98.1112 107.582C95.3244 107.582 92.5379 107.582 89.7511 107.582C87.1527 107.582 84.5543 107.582 81.9559 107.582C79.7598 107.582 77.5637 107.582 75.3676 107.582C73.7878 107.582 72.208 107.582 70.6283 107.582C69.88 107.582 69.128 107.561 68.38 107.582C68.3475 107.583 68.3149 107.582 68.2824 107.582C67.7007 107.582 67.6995 108.489 68.2824 108.489H69.8209H74.0081H80.2019H87.7603H96.0787H104.439H112.234H118.822H123.562C124.31 108.489 125.062 108.51 125.81 108.489C125.842 108.488 125.875 108.489 125.907 108.489C126.489 108.489 126.49 107.582 125.907 107.582Z" fill="#9D9BB2"/>
<path d="M125.907 119.537C125.395 119.537 124.882 119.537 124.369 119.537C122.973 119.537 121.577 119.537 120.182 119.537C118.117 119.537 116.052 119.537 113.988 119.537C111.469 119.537 108.949 119.537 106.43 119.537C103.657 119.537 100.884 119.537 98.1112 119.537C95.3244 119.537 92.5379 119.537 89.7511 119.537C87.1527 119.537 84.5543 119.537 81.9559 119.537C79.7598 119.537 77.5637 119.537 75.3676 119.537C73.7878 119.537 72.208 119.537 70.6283 119.537C69.88 119.537 69.128 119.516 68.38 119.537C68.3475 119.538 68.3149 119.537 68.2824 119.537C67.7007 119.537 67.6995 120.444 68.2824 120.444H69.8209H74.0081H80.2019H87.7603H96.0787H104.439H112.234H118.822H123.562C124.31 120.444 125.062 120.465 125.81 120.444C125.842 120.443 125.875 120.444 125.907 120.444C126.489 120.444 126.49 119.537 125.907 119.537Z" fill="#9D9BB2"/>
<path d="M125.907 131.493C125.395 131.493 124.882 131.493 124.369 131.493C122.973 131.493 121.577 131.493 120.182 131.493C118.117 131.493 116.052 131.493 113.988 131.493C111.469 131.493 108.949 131.493 106.43 131.493C103.657 131.493 100.884 131.493 98.1112 131.493C95.3244 131.493 92.5379 131.493 89.7511 131.493C87.1527 131.493 84.5543 131.493 81.9559 131.493C79.7598 131.493 77.5637 131.493 75.3676 131.493C73.7878 131.493 72.208 131.493 70.6283 131.493C69.88 131.493 69.128 131.471 68.38 131.493C68.3475 131.493 68.3149 131.493 68.2824 131.493C67.7007 131.493 67.6995 132.4 68.2824 132.4H69.8209H74.0081H80.2019H87.7603H96.0787H104.439H112.234H118.822H123.562C124.31 132.4 125.062 132.421 125.81 132.4C125.842 132.399 125.875 132.4 125.907 132.4C126.489 132.4 126.49 131.493 125.907 131.493Z" fill="#9D9BB2"/>
<path d="M125.907 143.448C125.395 143.448 124.882 143.448 124.369 143.448C122.973 143.448 121.577 143.448 120.182 143.448C118.117 143.448 116.052 143.448 113.988 143.448C111.469 143.448 108.949 143.448 106.43 143.448C103.657 143.448 100.884 143.448 98.1112 143.448C95.3244 143.448 92.5379 143.448 89.7511 143.448C87.1527 143.448 84.5543 143.448 81.9559 143.448C79.7598 143.448 77.5637 143.448 75.3676 143.448C73.7878 143.448 72.208 143.448 70.6283 143.448C69.88 143.448 69.128 143.427 68.38 143.448C68.3475 143.449 68.3149 143.448 68.2824 143.448C67.7007 143.448 67.6995 144.355 68.2824 144.355H69.8209H74.0081H80.2019H87.7603H96.0787H104.439H112.234H118.822H123.562C124.31 144.355 125.062 144.376 125.81 144.355C125.842 144.354 125.875 144.355 125.907 144.355C126.489 144.355 126.49 143.448 125.907 143.448Z" fill="#9D9BB2"/>
<path d="M104.047 76.2168V75.903C104.047 72.5951 101.55 69.8731 98.3432 69.5294C99.8552 69.0088 100.943 67.5738 100.943 65.8805C100.943 63.7483 99.2205 62.02 97.0949 62.02C94.9693 62.02 93.2464 63.7483 93.2464 65.8805C93.2464 67.5738 94.3346 69.0088 95.8466 69.5294C92.64 69.8734 90.1426 72.5954 90.1426 75.903V76.2168" fill="white"/>
<path d="M74.4496 79.8118V62.7718H81.6736C82.4576 62.7718 83.1776 62.9318 83.8336 63.2518C84.4896 63.5718 85.0576 64.0038 85.5376 64.5478C86.0336 65.0918 86.4176 65.6998 86.6896 66.3718C86.9616 67.0438 87.0976 67.7318 87.0976 68.4358C87.0976 69.3958 86.8736 70.3078 86.4256 71.1718C85.9776 72.0358 85.3616 72.7398 84.5776 73.2838C83.7936 73.8278 82.8656 74.0998 81.7936 74.0998H77.7616V79.8118H74.4496ZM77.7616 71.1958H81.6016C82.0016 71.1958 82.3616 71.0838 82.6816 70.8598C83.0016 70.6358 83.2576 70.3158 83.4496 69.8998C83.6416 69.4678 83.7376 68.9798 83.7376 68.4358C83.7376 67.8438 83.6256 67.3398 83.4016 66.9238C83.1936 66.5078 82.9136 66.1958 82.5616 65.9878C82.2256 65.7798 81.8576 65.6758 81.4576 65.6758H77.7616V71.1958ZM89.1627 79.8118V62.7718H95.3547C97.2107 62.7718 98.7627 63.1558 100.011 63.9238C101.259 64.6758 102.195 65.6998 102.819 66.9958C103.443 68.2758 103.755 69.6998 103.755 71.2678C103.755 72.9958 103.411 74.4998 102.723 75.7798C102.035 77.0598 101.059 78.0518 99.7947 78.7558C98.5467 79.4598 97.0667 79.8118 95.3547 79.8118H89.1627ZM100.419 71.2678C100.419 70.1638 100.219 69.1958 99.8187 68.3638C99.4187 67.5158 98.8427 66.8598 98.0907 66.3958C97.3387 65.9158 96.4267 65.6758 95.3547 65.6758H92.4747V76.9078H95.3547C96.4427 76.9078 97.3627 76.6678 98.1147 76.1878C98.8667 75.6918 99.4347 75.0198 99.8187 74.1718C100.219 73.3078 100.419 72.3398 100.419 71.2678ZM106.102 79.8118V62.7718H117.55V65.6758H109.414V70.0678H116.182V72.7558H109.414V79.8118H106.102Z" fill="#DE4040"/>
</svg>
